<?xml version="1.0" encoding="UTF-8" standalone="no"?>
<svg
   xmlns:dc="http://purl.org/dc/elements/1.1/"
   xmlns:cc="http://creativecommons.org/ns#"
   xmlns:rdf="http://www.w3.org/1999/02/22-rdf-syntax-ns#"
   xmlns:svg="http://www.w3.org/2000/svg"
   xmlns="http://www.w3.org/2000/svg"
   viewBox="0 0 158.50667 158.89333"
   height="158.89333"
   width="158.50667"
   xml:space="preserve"
   id="svg2"
   version="1.1"><metadata
     id="metadata8"><rdf:RDF><cc:Work
         rdf:about=""><dc:format>image/svg+xml</dc:format><dc:type
           rdf:resource="http://purl.org/dc/dcmitype/StillImage" /></cc:Work></rdf:RDF></metadata><defs
     id="defs6" /><g
     transform="matrix(1.3333333,0,0,-1.3333333,0,158.89333)"
     id="g10"><g
       transform="scale(0.1)"
       id="g12"><path
         id="path14"
         style="fill:#ef2980;fill-opacity:1;fill-rule:evenodd;stroke:none"
         d="m 120.059,1191.7 h 943.081 c 66.3,0 120.05,-53.75 120.05,-120.06 V 128.559 C 1183.19,62.25 1129.44,8.5 1063.14,8.5 H 120.059 C 53.7617,8.5 0,62.25 0,128.559 v 943.081 c 0,66.31 53.7617,120.06 120.059,120.06 v 0" /><path
         id="path16"
         style="fill:#ffffff;fill-opacity:1;fill-rule:evenodd;stroke:none"
         d="m 816.422,289.348 c -2.82,-7.735 -5.652,-15.899 -8.402,-24.403 -4.786,-14.765 -8.848,-28.879 -12.043,-41.593 -11.254,5.832 -23.95,11.906 -37.539,17.871 -5.028,2.218 -9.965,4.328 -14.817,6.32 4.266,18.086 10.578,40.488 18.442,65.234 20.781,-8.214 39.292,-16.211 54.359,-23.429 z m -27.02,118.742 c -7.547,-17.317 -15.621,-37.981 -23.445,-60.488 -2.934,-8.438 -5.672,-16.7 -8.227,-24.719 -8.828,3.488 -18.105,6.984 -27.71,10.422 -22.661,8.117 -44.161,14.843 -62.715,19.804 8.836,28.133 19.703,59.618 32.195,92.996 34.328,-13.179 65.137,-26.265 89.902,-38.015 z m -94.039,48.152 c -6.613,2.539 -13.363,5.071 -20.25,7.578 -21.07,7.688 -41.39,14.465 -60.172,20.157 1.481,3.711 2.989,7.453 4.547,11.23 9.875,23.996 19.867,45.996 28.977,64.18 19.98,-5.516 43.312,-12.879 68.058,-21.649 3.524,-1.25 6.969,-2.511 10.407,-3.761 -8.926,-19.774 -18.172,-42.098 -27.188,-65.957 -1.492,-3.965 -2.953,-7.879 -4.379,-11.778 z m 40.528,80.988 c 11.187,26.309 22.207,50.762 32.644,72.5 -10.086,-12.339 -24.012,-37.402 -39.027,-70.078 -4.168,1.551 -8.406,3.094 -12.731,4.629 -24.347,8.645 -47.175,15.477 -65.843,19.973 6.457,12.621 12.398,23.187 17.425,30.922 -4.777,-1.879 -12.851,-12.86 -22.371,-29.774 -20.453,4.661 -35.14,6.18 -40.023,3.727 9.777,-1.527 22.586,-4.391 37.445,-8.371 -8.988,-16.528 -19.066,-37.832 -28.82,-61.496 -1.883,-4.571 -3.692,-9.102 -5.422,-13.547 -45.445,13.488 -81.07,20.312 -94.973,17.93 23.102,-4.422 55.285,-13.067 92.309,-24.844 -15.481,-40.86 -24.086,-74.363 -21.621,-84.324 4.578,19.656 14.254,49.187 27.301,82.519 18.82,-6.074 38.793,-12.93 59.429,-20.449 7.133,-2.598 14.137,-5.207 21.032,-7.824 -12.95,-36.035 -22.93,-69.004 -28.922,-94.668 -29.016,7.55 -50.246,10.547 -56.457,7.422 14.382,-2.735 33.293,-7.567 54.957,-14.024 -2.196,-10.086 -3.692,-18.855 -4.422,-25.984 2.269,7.976 4.765,16.367 7.461,25.086 17.937,-5.41 37.676,-11.922 58.281,-19.297 11.016,-3.945 21.652,-7.93 31.836,-11.875 -8.086,-26.153 -13.902,-49.199 -16.738,-65.809 -12.008,4.852 -23.309,9.024 -33.348,12.324 0.168,-0.089 0.324,-0.156 0.484,-0.222 9.957,-4.758 20.911,-10.227 32.219,-16.086 -1.883,-12.442 -1.797,-20.578 0.633,-22.598 0.894,5.723 2.238,12.539 3.976,20.196 17.188,-9.004 35.004,-18.829 51.313,-28.387 -6.445,-27.762 -8.148,-47.11 -3.438,-48.641 1.383,-0.441 3.211,0.68 5.387,3.141 1.106,11.301 3.305,25.371 6.176,40.703 13.98,-8.379 26.488,-16.438 36.023,-23.383 3.297,-0.012 5.36,0.609 5.946,1.949 2.031,4.618 -14.258,16.61 -40.203,30.633 4.414,22.254 10.027,46.453 15.761,68.621 9.149,-4.461 16.907,-8.582 22.969,-12.246 0.402,3.801 -7.562,10.254 -21.434,18.137 2.227,8.457 4.461,16.582 6.641,24.062 0.047,0.164 0.086,0.332 0.141,0.508 -3.035,-6.992 -6.18,-14.785 -9.321,-23.152 -13.636,7.527 -32.347,16.226 -54.136,25.055 2.961,9.121 6.117,18.496 9.445,28.078 7.141,20.554 14.363,39.871 21.273,57.078 10.954,-5.301 20.594,-10.313 28.622,-14.864 -3.993,5.079 -13.309,11.797 -26.731,19.504 8.156,20.059 15.813,37.039 22.27,49.403 -5.688,-2.489 -15.95,-20 -27.719,-46.336 -22.039,12.121 -53.203,26.367 -89.289,40.5 3.437,9.082 6.988,18.289 10.656,27.605 6.828,17.383 13.703,34.227 20.531,50.41 35.532,-13.222 65.711,-26.476 84.34,-36.718 -6.055,8.906 -38.765,25.84 -81.937,42.382 z M 872.715,88.8711 c 0.094,-0.6602 0.144,-1.3516 0.144,-2.0313 0,-7.9414 -6.23,-14.4179 -14.07,-14.8203 C 858.531,72.0117 858.273,72 858.02,72 c -0.297,0 -0.586,0.0117 -0.883,0.0313 -2.977,0.1679 -5.703,1.2187 -7.965,2.8906 -0.668,0.5 -1.305,1.0469 -1.891,1.6679 0,0 -0.008,0.0118 -0.019,0.0196 v 0.0117 c -0.157,0.1484 -0.297,0.3086 -0.438,0.4687 L 435.695,544.262 c 44.403,1.758 97.125,11.211 151.93,28.679 78.48,25.012 143.988,60.946 182.078,96.52 -33.289,-21.09 -86.074,-45.445 -147.226,-66.582 -61.875,-21.391 -145.434,-38.625 -198.524,-33.453 -27.937,2.726 -47.394,21.426 -50.894,27.801 -3.809,6.914 -5.879,14.472 -7.246,22.214 -4.762,4.75 -11.125,7.102 -16.422,11.125 -24.032,18.211 -30.934,45.747 -17.547,72.602 3.109,6.234 6.472,12.504 11.984,17.164 -6.23,5.352 -12.488,10.676 -16.449,18.106 -6.969,13.074 -6.484,26.351 -1.07,39.789 6.375,15.804 17.027,28.402 29.664,39.511 1.281,1.117 2.48,2.34 3.726,3.512 -6.816,6.281 -14.32,11.754 -19.679,19.637 -18.098,26.679 -8.321,61.808 15.91,78.117 2,1.34 4.468,2.16 5.718,4.492 -16.578,10.742 -22.539,27.215 -24.16,45.762 -2.246,25.691 5.727,49.082 17.602,71.272 12.09,22.58 28.148,42.15 46.871,59.59 1.926,1.79 12.273,8.43 15.711,8.67 6.074,-4.27 10.168,-10.87 13.461,-17.49 13.621,-27.37 28.555,-53.91 48.117,-77.54 20.855,-25.186 45.453,-45.08 77.75,-53.877 13.969,-3.809 28.352,-3.336 42.547,-4.801 15.234,-1.582 57.691,-12.805 61.008,-14.125 22.617,-9.019 43.918,-20.465 61.781,-37.238 19.312,-18.133 33.672,-39.332 36.707,-66.598 0.227,-2.058 0.012,-4.183 0,-6.273 14.391,-8.067 28.223,-16.856 38.609,-30.067 6.403,-8.156 10.621,-17.176 10.532,-27.808 5.992,-5.024 11.629,-10.121 15.086,-17.594 5.55,-11.992 2.226,-22.32 -4.454,-32.332 -3.449,-5.156 -7.515,-9.664 -11.925,-13.746 0.214,-0.86 0.297,-1.774 0.246,-2.715 L 872.715,88.8711 v 0" /></g></g></svg>